<svg clip-rule="evenodd" fill-rule="evenodd" stroke-linejoin="round" stroke-miterlimit="2" viewBox="0 0 2000 2000" xmlns="http://www.w3.org/2000/svg"><path d="m1490.51 1242.47c0 58.57-29.46 128.86-71.18 170.58s-112.67 70.59-171.23 70.59l-495.581.52c-58.57 0-129.946-30.52-171.666-72.24s-70.679-110.77-70.679-169.33l-.37-484.285c0-58.57 30.163-128.357 71.883-170.077s112.319-71.947 170.879-71.947l495.934-.123c58.57 0 129.25 30.641 170.97 72.361s70.77 111.463 70.77 170.023z" fill="#fff"/><path d="m1248.46 510.69h-496.42c-65.9 0-128.02 25.83-174.93 72.74s-72.74 109.03-72.74 174.93v483.77c0 65.9 25.83 128.02 72.74 174.93s109.03 72.74 174.93 72.74h496.43c65.9 0 128.02-25.83 174.93-72.74s72.74-109.03 72.74-174.93v-483.76c0-65.9-25.83-128.02-72.74-174.93-46.92-46.91-109.04-72.75-174.94-72.75zm242.05 731.78c0 58.57-29.46 128.86-71.18 170.58s-112.67 70.59-171.23 70.59l-495.581.52c-58.57 0-129.946-30.52-171.666-72.24s-70.679-110.77-70.679-169.33l-.37-484.285c0-58.57 30.163-128.357 71.883-170.077s112.319-71.947 170.879-71.947l495.934-.123c58.57 0 129.25 30.641 170.97 72.361s70.77 111.463 70.77 170.023z" fill="#2f2f2f" fill-rule="nonzero"/><path d="m1248.46 510.69h-496.42c-65.9 0-128.02 25.83-174.93 72.74s-72.74 109.03-72.74 174.93v483.77c0 65.9 25.83 128.02 72.74 174.93s109.03 72.74 174.93 72.74h496.43c65.9 0 128.02-25.83 174.93-72.74s72.74-109.03 72.74-174.93v-483.76c0-65.9-25.83-128.02-72.74-174.93-46.92-46.91-109.04-72.75-174.94-72.75zm242.05 731.78c0 58.57-29.46 128.86-71.18 170.58s-112.67 70.59-171.23 70.59l-495.581.52c-58.57 0-129.946-30.52-171.666-72.24s-70.679-110.77-70.679-169.33l-.37-484.285c0-58.57 30.163-128.357 71.883-170.077s112.319-71.947 170.879-71.947l495.934-.123c58.57 0 129.25 30.641 170.97 72.361s70.77 111.463 70.77 170.023z" fill="none"/><g fill-rule="nonzero"><path d="m1275.44 1265.84.12.11c7.34 6.48 18.21 6.49 24.91-1.09 6.7-7.59 5.34-18.14-2-24.62l-.12-.11c-7.34-6.48-18.21-6.49-24.91 1.09-6.7 7.59-5.35 18.15 2 24.62z" fill="#f04923"/><path d="m803.2 672.06c-5.42-8.16-15.92-10.98-24.34-5.38-8.43 5.6-9.85 16.14-4.43 24.3l.09.14c5.42 8.16 15.91 10.98 24.34 5.38s9.85-16.14 4.43-24.3z" fill="#f04923"/><path d="m1158.45 1339.27-.06-.15c-2.22-5.18-7.01-6.41-12.78-3.93l-8.93 3.82 6.88 16.05 9.15-3.92c5.77-2.48 7.66-7.37 5.74-11.87z" fill="#f04923"/><path d="m893.06 1352.8-12.63 15.52 14.52 4.4z" fill="#f04923"/><path d="m680.94 774.72-.14-.09c-4.69-3.11-9.37-1.51-12.84 3.72l-5.36 8.09 14.56 9.65 5.5-8.3c3.46-5.23 2.36-10.36-1.72-13.07z" fill="#f04923"/><path d="m1228.67 672.42-7.99-5.52-9.93 14.36 8.19 5.66c5.17 3.57 10.32 2.57 13.11-1.45l.09-.13c3.2-4.63 1.7-9.35-3.47-12.92z" fill="#f04923"/><path d="m1085.87 609.93-12.21-2.59-3.4 16.04 12.45 2.64c5.99 1.27 10.1-1.19 11.1-5.9l.03-.16c1.11-5.27-1.98-8.76-7.97-10.03z" fill="#f04923"/><path d="m940.39 622.26c-1.96-9.59-10.62-16.15-20.54-14.13-9.91 2.02-15.19 11.26-13.23 20.86l.03.16c1.96 9.59 10.63 16.15 20.54 14.13s15.19-11.26 13.23-20.86z" fill="#f04923"/><path d="m1158.01 636.72-14.35 13.96 13.93 6.05z" fill="#f04923"/><path d="m1413.64 825.57c-22.6-53.44-54.94-101.42-96.12-142.59-41.18-41.18-89.15-73.52-142.59-96.12-55.37-23.42-114.14-35.3-174.68-35.3s-119.3 11.88-174.67 35.29c-53.44 22.6-101.42 54.94-142.59 96.12-41.18 41.18-73.52 89.15-96.12 142.59-23.42 55.37-35.3 114.14-35.3 174.67 0 60.54 11.88 119.3 35.29 174.68 22.6 53.44 54.94 101.41 96.12 142.59s89.15 73.52 142.59 96.12c55.37 23.42 114.14 35.29 174.67 35.29 60.54 0 119.3-11.88 174.68-35.29 53.44-22.6 101.42-54.94 142.59-96.12 41.18-41.18 73.52-89.15 96.12-142.59 23.42-55.37 35.29-114.14 35.29-174.68.02-60.52-11.86-119.29-35.28-174.66zm-56.55 378.73-5.82 10.95-50.44-26.82 5.44-10.23 43.62-7.12-31.06-16.51 5.82-10.95 50.44 26.82-5.02 9.44-45.05 7.38zm-128.73 137.82-10.25 7.28-33.07-46.58 10.25-7.28 13.09 18.43 18.9-13.42-13.09-18.43 10.25-7.28 33.07 46.58-10.25 7.28-13.28-18.7-18.9 13.42zm-73.66 38.97-11.55 4.95-22.5-52.5 21.45-9.19c12.53-5.37 23.28-1.19 27.88 9.54l.06.15c5.21 12.15-1.54 22.5-13.32 27.55l-8.78 3.76zm-51.72 17.05-12.22 2.95-13.39-55.53 12.22-2.95zm-344.79-94.55-13.77 18.33-10.05-7.55 34.31-45.67 10.05 7.55-13.58 18.07 18.53 13.92 13.58-18.07 10.05 7.55-34.31 45.67-10.05-7.55 13.77-18.33zm-150.43-179.5-3.62-10.32 47.84-37.43 4.45 12.71-32.58 23.95 40.89-.76 3.56 10.17-32.42 24.94 40.41-1.63 4.34 12.4-60.74.62-3.62-10.32 31-24.53zm3.24-177.19c0-6.53 5.31-11.85 11.85-11.85s11.85 5.31 11.85 11.85-5.31 11.85-11.85 11.85-11.85-5.32-11.85-11.85zm103.73-242.37 8.78-8.99 40.86 39.92-8.78 8.99-16.4-16.03-16.2 16.58 16.4 16.03-8.78 8.99-40.86-39.92 8.78-8.99 16.17 15.8 16.2-16.58zm292.23-68.43c4.57.05 8.66-1.05 11.87-3.3l.08-8.16-12.65-.13.11-10.85 24.81.26-.26 24.81c-5.93 4.92-14.05 8.91-24.49 8.81-17.79-.18-29.9-12.79-29.73-29.69v-.16c.17-16.24 12.95-29.41 30.25-29.23 10.28.11 16.45 2.94 22.36 8.07l-8.01 9.46c-4.37-3.72-8.26-5.88-14.87-5.95-9.14-.09-16.49 7.91-16.59 17.62v.16c-.1 10.43 7 18.17 17.12 18.28zm93.2 23.65-14.37-3.05-8.18-20.42-9.66-2.05-3.79 17.88-12.29-2.61 11.86-55.87 25.54 5.42c7.1 1.51 12.19 4.67 15.08 9.12 2.45 3.77 3.2 8.52 2.08 13.79l-.03.16c-1.91 9.02-7.98 13.65-15.65 14.78zm34.96-.68-9.9 9.67-11.75-5.11 45.39-43 10.63 4.62-.49 62.52-12.05-5.24.32-13.83zm150.34 77.42 16.11-15.85 8.81 8.96-40.72 40.06-8.81-8.96 16.35-16.08-16.25-16.52-16.35 16.08-8.81-8.96 40.72-40.06 8.81 8.96-16.11 15.85zm66.14 50.12 7.83 11.94-40.76.49-19.04 12.49-6.89-10.51 18.83-12.35 16.88-37.33 8.06 12.28-11.7 23.97zm14.2 160.29c0-6.53 5.31-11.85 11.85-11.85s11.85 5.31 11.85 11.85-5.31 11.85-11.85 11.85-11.85-5.32-11.85-11.85zm-42.33 53.35c0 178.22-145 323.22-323.22 323.22s-323.22-145-323.22-323.22 145-323.22 323.22-323.22 323.22 145 323.22 323.22zm-80.72-307.88-.09.13c-7.52 10.87-19.87 10.66-30.41 3.38l-7.85-5.43-9.75 14.09-10.34-7.15 32.49-46.98 19.19 13.27c11.21 7.77 13.39 19.1 6.76 28.69zm-313.4-37.71c-17.27 3.53-32.29-6.82-35.54-22.73l-.03-.16c-3.25-15.91 6.64-31.5 23.91-35.03 17.27-3.52 32.29 6.82 35.53 22.73l.03.16c3.26 15.91-6.63 31.5-23.9 35.03zm-60.51-32.26-16.06 6.66 17.44 42.06-11.61 4.81-17.44-42.06-16.06 6.66-4.44-10.7 43.72-18.13zm-63.71 83.84c-14.68 9.75-32.49 5.8-41.47-7.72l-.09-.14c-8.98-13.53-5.67-31.7 9.01-41.45s32.49-5.8 41.47 7.72l.09.14c8.99 13.53 5.67 31.7-9.01 41.45zm-113.39 88.07-5.27 7.96 14.28 9.47-6.94 10.47-47.61-31.55 12.89-19.45c7.53-11.36 18.81-13.77 28.54-7.32l.14.09c11.02 7.3 11.05 19.65 3.97 30.33zm4.01 386.17 6.6 10.69-48.59 30.02-6.6-10.69zm25.02 55.11-11.43-13.1 8.73-7.62 31.12 35.66-8.73 7.62-11.43-13.1-34.3 29.94-8.26-9.47zm171.28 101.13 11.09 3.36 6.74 62.15-12.57-3.81-1.28-13.77-23.11-7.01-8.71 10.75-12.26-3.72zm95.65 74.4-25.24-38.04-2.37 36.24-12.38-.81 3.72-57 11.56.76 24.42 36.84 2.29-35.1 12.38.81-3.72 57zm277.16-177.69c11.66-13.22 29.88-14.01 42.06-3.26l.12.11c12.18 10.75 13.67 29.15 2.01 42.37s-29.88 14.01-42.06 3.26l-.12-.11c-12.18-10.74-13.68-29.15-2.01-42.37zm70.63-118.31 11.57-41.5 10.77 3-8.21 29.48 11.16 3.11 7.23-25.94 10.77 3-7.23 25.94 11.56 3.22 8.32-29.87 10.77 3-11.68 41.9z" fill="#f04923"/><path d="m1110.43 751.08h-220.36c-33.85 0-65.76 13.27-89.85 37.36s-37.36 56-37.36 89.85v243.92c0 33.85 13.27 65.76 37.36 89.85s56 37.36 89.85 37.36h220.37c33.85 0 65.76-13.27 89.85-37.36s37.36-56 37.36-89.85v-243.92c0-33.85-13.27-65.76-37.36-89.85-24.1-24.09-56.01-37.36-89.86-37.36zm108.71 371.13c0 28.91-11.34 56.17-31.94 76.77s-47.86 31.94-76.77 31.94h-220.36c-28.91 0-56.17-11.34-76.77-31.94s-31.94-47.86-31.94-76.77v-243.92c0-28.91 11.34-56.17 31.94-76.77s47.86-31.94 76.77-31.94h220.37c28.91 0 56.17 11.34 76.77 31.94s31.94 47.86 31.94 76.77v243.92z" fill="#2f2f2f"/><path d="m1110.6 883.29c25.65 0 46.52-20.87 46.52-46.52s-20.87-46.52-46.52-46.52-46.52 20.87-46.52 46.52 20.87 46.52 46.52 46.52zm0-79.29c18.07 0 32.77 14.7 32.77 32.77s-14.7 32.77-32.77 32.77-32.77-14.7-32.77-32.77 14.7-32.77 32.77-32.77z" fill="#2f2f2f"/><path d="m1110.6 1116.45c-25.65 0-46.52 20.87-46.52 46.52s20.87 46.52 46.52 46.52 46.52-20.87 46.52-46.52-20.87-46.52-46.52-46.52z" fill="#2f2f2f"/></g><circle cx="1179.39" cy="1123.33" fill="#2f2f2f" r="6.62"/><path d="m893.19 811.67c-39.21 0-71.11 31.9-71.11 71.11s31.9 71.11 71.11 71.11 71.11-31.9 71.11-71.11-31.9-71.11-71.11-71.11zm-24.16 10.64c1.91-.7 3.88-1.42 5.83-2.04 3.21-1.02 6.76-1.74 10.86-2.18 5.18-.56 9.91-.59 14.47-.09 1.25.14 2.49.3 3.8.48.29.04.59.08.89.12.11.29.21.56.26.8.32 1.53.63 3.04.93 4.55.29 1.46.57 2.91.84 4.37.65 3.59 1.29 7.17 1.93 10.76.51 2.86 1.02 5.72 1.52 8.59l.91 5.11c.44 2.49.88 4.98 1.32 7.47-3.91-3.35-7.83-6.7-11.74-10.05l-6.14-5.25c-3.06-2.61-6.11-5.23-9.17-7.85-4.21-3.6-8.42-7.2-12.63-10.81-1.47-1.26-2.95-2.52-4.42-3.78.18-.06.36-.13.54-.2zm-20.49 12.97c3.66-3.43 7.59-6.39 11.7-8.77.1-.06.2-.12.3-.18.31-.19.5-.3.65-.35 1.43 1.2 2.87 2.4 4.3 3.6 1.44 1.2 2.88 2.41 4.32 3.61 2.42 2.02 4.86 4.06 7.31 6.11 5.36 4.48 10.77 9.03 16.14 13.61h-57.96c3.49-6.72 7.93-12.64 13.24-17.63zm-18.97 61.45c-.57-2.43-.81-4.87-1.04-7.24-1.25-12.73.94-21.78 3.62-29.59h42.31c-1.12.84-2.25 1.71-3.34 2.61-6.48 5.36-12.95 10.73-19.42 16.11-1.57 1.3-3.14 2.6-4.71 3.91-3.5 2.91-7 5.82-10.5 8.72-.8.67-1.63 1.32-2.45 1.98-1.04.83-2.08 1.65-3.11 2.45-.45.34-.91.7-1.36 1.05zm27.66 18.05c-.81 4.66-1.64 9.42-2.48 14.19-.34 1.9-.67 3.8-1.01 5.7-5.76-4.55-10.56-9.65-14.28-15.17-3.16-4.69-5.68-9.53-7.47-14.36-.09-.24-.19-.5-.25-.7.12-.11.28-.24.42-.36l.22-.19c1.19-1 2.37-1.99 3.56-2.99 3.54-2.97 7.08-5.95 10.61-8.92.39-.32.77-.65 1.16-.97 3.3-2.78 6.6-5.56 9.9-8.33 2.12-1.78 4.24-3.54 6.37-5.3-2.27 11.75-4.35 23.66-6.37 35.26-.13.72-.25 1.43-.38 2.14zm38.03 33.15c-1.82-.01-3.54-.03-5.25-.2-3.61-.36-7.29-.84-10.96-1.43-3.72-.59-7.27-2-10.88-3.52-2.07-.87-4.14-1.88-6.15-2.86l-1.16-.57c-.25-.12-.5-.29-.78-.49l.93-5.26 2.64-14.92 3.76-21.26c.34.64.69 1.26 1.05 1.89 2.46 4.32 4.92 8.64 7.39 12.96 2.14 3.74 4.28 7.48 6.41 11.23.93 1.64 1.86 3.28 2.79 4.92 2.78 4.89 5.55 9.77 8.32 14.66.29.51.57 1.01.86 1.52l1.89 3.33zm40.54-15.68c-7.88 6.62-17.15 11.29-27.56 13.89-1.06.27-2.21.5-3.4.7-.22.04-.46.05-.72.06-.53-.82-1.47-2.36-2.67-4.37-2.08-3.47-4.95-8.35-7.89-13.4-4.05-6.94-8.22-14.2-10.65-18.54 11.22 4.3 22.63 8.44 33.77 12.46.98.35 1.96.71 2.94 1.06 4.18 1.51 8.45 3.05 12.73 4.61 1.76.64 3.53 1.28 5.28 1.93-.62.55-1.22 1.08-1.83 1.6zm22.16-40.71c-1.28 6.82-2.87 12.26-5.01 17.13-2.72 6.2-5.34 10.67-8.49 14.49-.46.56-.95 1.1-1.47 1.66-.09.1-.19.21-.28.31-1.59-.57-3.21-1.16-4.84-1.75-4.63-1.67-9.42-3.4-14.29-5.17-6.75-2.45-13.65-4.97-20.5-7.49.55-.19 1.1-.38 1.65-.57 3.33-1.16 6.78-2.35 10.17-3.56 5.06-1.81 10.2-3.67 15.17-5.47l5.9-2.14c.35-.13.7-.26 1.06-.38 1.25-.45 2.51-.91 3.76-1.37 3.69-1.34 7.51-2.73 11.28-4.06.18-.06.37-.12.56-.19 1.68-.57 3.47-1.09 5.34-1.54.01 0 .02-.01.03-.01-.03.04-.04.07-.04.11zm-12.71-39.01c.97-1.67 1.94-3.34 2.9-5.02 2.26 3.56 4.23 7.59 6.1 12.47 2.84 7.4 4.13 15.11 3.94 23.52l-4.81 1.75-14.31 5.22-20.15 7.35c1.78-2.75 3.41-5.58 5-8.35.38-.67.77-1.34 1.16-2 3.96-6.84 7.91-13.69 11.86-20.54.44-.77.88-1.53 1.33-2.3l6.05-10.49c.3-.54.62-1.08.93-1.61zm-1.62-11.45c-.92 1.66-1.86 3.32-2.8 4.99-2.48 4.41-4.99 8.8-7.5 13.17-2.16 3.76-4.33 7.5-6.46 11.19-1.4 2.42-2.8 4.83-4.19 7.25l-6.11-35.07-2.86-16.44-.99-5.67c3.27 1.03 6.67 2.49 10.79 4.62 2.81 1.46 5.71 2.97 8.24 4.95 3.99 3.13 7.83 6.68 11.75 10.85.03.04.08.1.13.16z" fill="#2f2f2f" fill-rule="nonzero"/><path d="m893.19 789.83c-51.34 0-92.95 41.62-92.95 92.95s41.62 92.95 92.95 92.95 92.95-41.62 92.95-92.95-41.61-92.95-92.95-92.95zm0 165.61c-40.06 0-72.66-32.59-72.66-72.66 0-40.06 32.59-72.66 72.66-72.66 40.06 0 72.66 32.59 72.66 72.66-.01 40.07-32.6 72.66-72.66 72.66z" fill="#2f2f2f" fill-rule="nonzero"/><path d="m893.19 1024.76c-51.34 0-92.95 41.62-92.95 92.95s41.62 92.95 92.95 92.95 92.95-41.62 92.95-92.95-41.61-92.95-92.95-92.95zm0 165.61c-40.06 0-72.66-32.59-72.66-72.66 0-40.06 32.59-72.66 72.66-72.66 40.06 0 72.66 32.59 72.66 72.66-.01 40.07-32.6 72.66-72.66 72.66z" fill="#2f2f2f" fill-rule="nonzero"/><path d="m893.19 1046.6c-39.21 0-71.11 31.9-71.11 71.11s31.9 71.11 71.11 71.11 71.11-31.9 71.11-71.11-31.9-71.11-71.11-71.11zm-24.16 10.64c1.91-.7 3.88-1.42 5.83-2.04 3.21-1.02 6.76-1.74 10.86-2.18 5.18-.56 9.91-.59 14.47-.09 1.25.14 2.49.3 3.8.48.29.04.59.08.89.12.11.29.21.56.26.8.32 1.53.63 3.04.93 4.55.29 1.46.57 2.91.84 4.37.65 3.59 1.29 7.17 1.93 10.76.51 2.86 1.02 5.72 1.52 8.59l.91 5.11c.44 2.49.88 4.98 1.32 7.47-3.91-3.35-7.83-6.7-11.74-10.05l-6.14-5.25c-3.06-2.61-6.11-5.23-9.17-7.85-4.21-3.6-8.42-7.2-12.63-10.81-1.47-1.26-2.95-2.52-4.42-3.78.18-.07.36-.13.54-.2zm-20.49 12.97c3.66-3.43 7.59-6.39 11.7-8.77l.3-.18c.31-.19.5-.3.65-.35 1.43 1.2 2.87 2.4 4.3 3.6 1.44 1.2 2.88 2.41 4.32 3.61 2.42 2.02 4.86 4.06 7.31 6.11 5.36 4.48 10.77 9.03 16.14 13.61h-57.96c3.49-6.72 7.93-12.65 13.24-17.63zm-18.97 61.45c-.57-2.43-.81-4.87-1.04-7.24-1.25-12.73.94-21.78 3.62-29.59h42.31c-1.12.84-2.25 1.71-3.34 2.61-6.48 5.36-12.95 10.73-19.42 16.11-1.57 1.3-3.14 2.6-4.71 3.91-3.5 2.91-7 5.82-10.5 8.72-.8.67-1.63 1.32-2.45 1.98-1.04.83-2.08 1.65-3.11 2.45-.45.34-.91.7-1.36 1.05zm27.66 18.05c-.81 4.66-1.64 9.42-2.48 14.19-.34 1.9-.67 3.8-1.01 5.7-5.76-4.55-10.56-9.65-14.28-15.17-3.16-4.69-5.68-9.53-7.47-14.36-.09-.24-.19-.5-.25-.7.12-.11.28-.24.42-.36l.22-.19c1.19-1 2.37-1.99 3.56-2.99 3.54-2.97 7.08-5.95 10.61-8.92.39-.32.77-.65 1.16-.97 3.3-2.78 6.6-5.56 9.9-8.33 2.12-1.78 4.24-3.54 6.37-5.3-2.27 11.75-4.35 23.66-6.37 35.26-.13.71-.25 1.43-.38 2.14zm38.03 33.15c-1.82-.01-3.54-.03-5.25-.2-3.61-.36-7.29-.84-10.96-1.43-3.72-.59-7.27-2-10.88-3.52-2.07-.87-4.14-1.88-6.15-2.86l-1.16-.57c-.25-.12-.5-.29-.78-.49l.93-5.26 2.64-14.92 3.76-21.26c.34.64.69 1.26 1.05 1.89 2.46 4.32 4.92 8.64 7.39 12.96 2.14 3.74 4.28 7.48 6.41 11.23.93 1.64 1.86 3.28 2.79 4.92 2.78 4.89 5.55 9.77 8.32 14.66.29.51.57 1.01.86 1.52l1.89 3.33zm40.54-15.68c-7.88 6.62-17.15 11.29-27.56 13.89-1.06.27-2.21.5-3.4.7-.22.04-.46.05-.72.06-.53-.82-1.47-2.36-2.67-4.37-2.08-3.47-4.95-8.35-7.89-13.4-4.05-6.94-8.22-14.2-10.65-18.54 11.22 4.3 22.63 8.44 33.77 12.46.98.35 1.96.71 2.94 1.06 4.18 1.51 8.45 3.05 12.73 4.61 1.76.64 3.53 1.28 5.28 1.93-.62.55-1.22 1.08-1.83 1.6zm22.16-40.71c-1.28 6.82-2.87 12.26-5.01 17.13-2.72 6.2-5.34 10.67-8.49 14.49-.46.56-.95 1.1-1.47 1.66-.09.1-.19.21-.28.31-1.59-.57-3.21-1.16-4.84-1.75-4.63-1.67-9.42-3.4-14.29-5.17-6.75-2.45-13.65-4.97-20.5-7.49l1.65-.57c3.33-1.16 6.78-2.35 10.17-3.56 5.06-1.81 10.2-3.67 15.17-5.47l5.9-2.14c.35-.13.7-.26 1.06-.38 1.25-.45 2.51-.91 3.76-1.37 3.69-1.34 7.51-2.73 11.28-4.06.18-.06.37-.12.56-.19 1.68-.57 3.47-1.09 5.34-1.54.01 0 .02-.01.03-.01-.03.04-.04.07-.04.11zm-12.71-39.02c.97-1.67 1.94-3.34 2.9-5.02 2.26 3.56 4.23 7.59 6.1 12.47 2.84 7.4 4.13 15.11 3.94 23.52l-4.81 1.75-14.31 5.22-20.15 7.35c1.78-2.75 3.41-5.58 5-8.35.38-.67.77-1.34 1.16-2 3.96-6.84 7.91-13.69 11.86-20.54.44-.77.88-1.53 1.33-2.3l6.05-10.49c.3-.53.62-1.07.93-1.61zm-1.62-11.44c-.92 1.66-1.86 3.32-2.8 4.99-2.48 4.41-4.99 8.8-7.5 13.17-2.16 3.76-4.33 7.5-6.46 11.19-1.4 2.42-2.8 4.83-4.19 7.25l-6.11-35.07-2.86-16.44-.99-5.67c3.27 1.03 6.67 2.49 10.79 4.62 2.81 1.46 5.71 2.97 8.24 4.95 3.99 3.13 7.83 6.68 11.75 10.85.03.04.08.1.13.16z" fill="#2f2f2f" fill-rule="nonzero"/><path d="m1109.83 907.3c-51.34 0-92.95 41.62-92.95 92.95 0 51.34 41.62 92.95 92.95 92.95 51.34 0 92.95-41.62 92.95-92.95 0-51.34-41.62-92.95-92.95-92.95zm46.21 148.98c-10.75 8.88-24.09 14.74-38.71 16.24-2.47.25-4.97.39-7.5.39-.81 0-1.63-.02-2.43-.05-14.32-.47-27.61-5.11-38.69-12.75-2.63-1.81-5.14-3.8-7.51-5.93-9.89-8.93-17.32-20.53-21.14-33.65-.89-3.06-1.59-6.2-2.07-9.4-.54-3.55-.81-7.18-.81-10.88 0-9.79 1.95-19.13 5.47-27.66 1.2-2.92 2.59-5.74 4.15-8.45 6.61-11.5 16.29-21.03 27.9-27.47 2.81-1.56 5.74-2.94 8.76-4.12 8.18-3.2 17.07-4.96 26.37-4.96 4.43 0 8.76.4 12.98 1.16 3.13.57 6.18 1.34 9.15 2.29 13.42 4.3 25.16 12.4 33.93 23.04 1.99 2.41 3.82 4.95 5.49 7.61 7.03 11.18 11.11 24.41 11.11 38.56 0 .7-.01 1.41-.03 2.1-.09 3.2-.39 6.35-.89 9.44-2.34 14.59-9.04 27.74-18.71 38.07-2.14 2.29-4.42 4.43-6.82 6.42z" fill="#2f2f2f" fill-rule="nonzero"/><path d="m1165.07 955.53c-8.46-10.43-19.81-18.43-32.82-22.76-2.96-.99-6.01-1.78-9.14-2.38-4.31-.82-8.75-1.25-13.29-1.25-8.81 0-17.25 1.61-25.04 4.56-3.05 1.15-6 2.5-8.83 4.04-11.34 6.17-20.82 15.33-27.38 26.41-1.6 2.71-3.03 5.53-4.27 8.45-3.6 8.51-5.6 17.85-5.6 27.66 0 3.3.23 6.55.67 9.74.44 3.23 1.1 6.39 1.97 9.46 3.59 12.8 10.68 24.14 20.17 32.94 2.35 2.18 4.85 4.21 7.49 6.06 10.71 7.54 23.59 12.2 37.5 12.84 1.1.05 2.21.08 3.33.08 2.23 0 4.44-.11 6.63-.31 14.26-1.32 27.32-6.88 37.89-15.39 2.45-1.97 4.76-4.09 6.93-6.36 9.55-10.01 16.2-22.79 18.64-36.99.53-3.07.85-6.2.97-9.39.03-.89.06-1.78.06-2.68 0-13.57-3.82-26.26-10.44-37.06-1.65-2.68-3.47-5.24-5.44-7.67zm-31.65-16.09c2.07.84 4.27 1.87 6.72 3.14 2.81 1.46 5.71 2.97 8.24 4.95 3.99 3.13 7.83 6.68 11.75 10.85.05.05.09.11.14.17-.92 1.66-1.86 3.32-2.8 4.99-2.48 4.41-4.99 8.8-7.5 13.17-2.16 3.76-4.32 7.5-6.46 11.19-.42.73-.84 1.46-1.26 2.19-.98 1.69-1.95 3.38-2.93 5.07l-6.11-35.07-2.86-16.44-.99-5.67c1.31.4 2.66.89 4.06 1.46zm-41.92-1.71c3.21-1.02 6.76-1.74 10.86-2.18 5.18-.56 9.91-.59 14.47-.09 1.25.14 2.49.3 3.8.48.29.04.59.08.89.12.11.29.21.56.26.8.32 1.53.63 3.04.93 4.55.29 1.46.57 2.91.84 4.37.65 3.59 1.29 7.17 1.93 10.76.51 2.86 1.02 5.72 1.52 8.59l.91 5.11c.02.14.05.27.07.41.42 2.35.83 4.71 1.24 7.06-3.91-3.35-7.83-6.7-11.74-10.05l-6.14-5.25c-3.06-2.61-6.11-5.23-9.17-7.85-4.21-3.6-8.42-7.2-12.63-10.81-1.47-1.26-2.95-2.52-4.42-3.78.18-.07.37-.13.55-.2 1.44-.53 2.92-1.06 4.4-1.56.48-.16.96-.33 1.43-.48zm-26.32 15.02c3.66-3.43 7.59-6.39 11.7-8.77.1-.06.2-.12.3-.18.31-.19.5-.3.65-.35 1.43 1.2 2.87 2.4 4.3 3.6 1.44 1.2 2.88 2.41 4.32 3.61 2.42 2.02 4.86 4.06 7.31 6.11 2.92 2.44 5.86 4.91 8.79 7.38 2.45 2.07 4.9 4.14 7.35 6.23h-57.96c1.12-2.16 2.35-4.23 3.67-6.23 2.78-4.2 5.97-8.02 9.57-11.4zm-16.39 24.61h42.31c-1.12.84-2.25 1.71-3.34 2.61-6.48 5.36-12.95 10.73-19.42 16.11-1.57 1.3-3.14 2.6-4.71 3.91-3.5 2.91-7 5.82-10.5 8.72-.8.67-1.63 1.32-2.45 1.98-1.04.83-2.08 1.65-3.11 2.45-.45.35-.91.71-1.36 1.06-.57-2.43-.81-4.87-1.04-7.24-.06-.56-.1-1.11-.14-1.66-.91-11.86 1.2-20.47 3.76-27.94zm25.46 52.75c-.12.71-.25 1.43-.37 2.14-.81 4.66-1.64 9.42-2.48 14.19-.34 1.9-.67 3.8-1.01 5.7-.08-.06-.15-.13-.23-.19-2.67-2.13-5.14-4.38-7.38-6.73-2.5-2.62-4.73-5.38-6.67-8.25-3.16-4.69-5.68-9.53-7.47-14.36-.09-.24-.19-.5-.25-.7.12-.11.28-.24.42-.36l.22-.19c1.19-1 2.37-1.99 3.56-2.99 3.54-2.97 7.08-5.95 10.61-8.92.39-.32.77-.65 1.16-.97 1.94-1.63 3.87-3.26 5.81-4.89 1.37-1.15 2.73-2.3 4.1-3.45 2.12-1.78 4.24-3.54 6.37-5.3-1.5 7.77-2.91 15.61-4.29 23.38-.72 3.99-1.42 7.96-2.1 11.89zm37.65 35.28c-1.82-.01-3.54-.03-5.25-.2-1.28-.13-2.56-.28-3.85-.43-2.36-.29-4.74-.62-7.1-.99-3.72-.59-7.27-2-10.88-3.52-2.07-.87-4.14-1.88-6.15-2.86l-1.16-.57c-.25-.12-.5-.29-.78-.49l.93-5.26 2.64-14.92 1.47-8.33 2.29-12.93c.34.64.69 1.26 1.05 1.89 2.46 4.32 4.92 8.64 7.39 12.96 2.14 3.74 4.28 7.48 6.41 11.23l2.79 4.92c2.78 4.89 5.55 9.77 8.32 14.66.29.51.57 1.01.86 1.52l1.89 3.33c-.3 0-.58-.01-.87-.01zm12.97-1.79c-1.06.27-2.21.5-3.4.7-.22.04-.46.05-.72.06-.53-.82-1.47-2.36-2.67-4.37-2.08-3.47-4.95-8.35-7.89-13.4-1.74-3-3.51-6.05-5.16-8.9-2.17-3.76-4.11-7.17-5.49-9.63 11.22 4.3 22.63 8.44 33.77 12.46.98.35 1.96.71 2.94 1.06 4.18 1.51 8.45 3.05 12.72 4.61 1.76.64 3.53 1.28 5.28 1.93-.62.55-1.22 1.08-1.83 1.59-1.5 1.26-3.05 2.45-4.66 3.57-6.78 4.75-14.46 8.22-22.89 10.32zm44.72-37.47c-2.72 6.2-5.34 10.67-8.49 14.49-.46.56-.95 1.1-1.47 1.66-.09.1-.19.21-.28.31-1.59-.57-3.21-1.16-4.84-1.75-4.63-1.67-9.42-3.4-14.29-5.17-4.15-1.51-8.36-3.04-12.58-4.58-2.64-.97-5.29-1.94-7.92-2.91l1.65-.57c3.33-1.16 6.78-2.35 10.17-3.56 5.06-1.81 10.2-3.67 15.17-5.47l5.9-2.14c.35-.13.7-.26 1.06-.38 1.25-.45 2.51-.91 3.76-1.37 3.69-1.34 7.51-2.73 11.28-4.06.18-.06.37-.12.56-.19 1.68-.57 3.47-1.09 5.34-1.54.01 0 .02-.01.03-.01-.01.03-.01.07-.02.11-.37 1.98-.77 3.83-1.2 5.59-1.08 4.33-2.32 8.09-3.83 11.54zm1.3-48.69c2.84 7.4 4.13 15.11 3.94 23.52l-4.81 1.75-14.31 5.22-14.01 5.1-6.15 2.24c1.78-2.75 3.41-5.58 5-8.35.38-.67.77-1.34 1.16-2 3.96-6.84 7.91-13.69 11.86-20.54.44-.77.88-1.53 1.33-2.3l6.05-10.49c.31-.54.62-1.08.94-1.61.97-1.67 1.94-3.34 2.9-5.02.82 1.28 1.59 2.63 2.34 4.05 1.33 2.54 2.56 5.31 3.76 8.43z" fill="#2f2f2f" fill-rule="nonzero"/><path d="m1248.46 510.69h-496.42c-65.9 0-128.02 25.83-174.93 72.74s-72.74 109.03-72.74 174.93v483.77c0 65.9 25.83 128.02 72.74 174.93s109.03 72.74 174.93 72.74h496.43c65.9 0 128.02-25.83 174.93-72.74s72.74-109.03 72.74-174.93v-483.76c0-65.9-25.83-128.02-72.74-174.93-46.92-46.91-109.04-72.75-174.94-72.75zm242.05 731.78c0 58.57-29.46 128.86-71.18 170.58s-112.67 70.59-171.23 70.59l-495.581.52c-58.57 0-129.946-30.52-171.666-72.24s-70.679-110.77-70.679-169.33l-.37-484.285c0-58.57 30.163-128.357 71.883-170.077s112.319-71.947 170.879-71.947l495.934-.123c58.57 0 129.25 30.641 170.97 72.361s70.77 111.463 70.77 170.023z" fill="#2f2f2f" fill-rule="nonzero"/><path d="m1248.46 510.69h-496.42c-65.9 0-128.02 25.83-174.93 72.74s-72.74 109.03-72.74 174.93v483.77c0 65.9 25.83 128.02 72.74 174.93s109.03 72.74 174.93 72.74h496.43c65.9 0 128.02-25.83 174.93-72.74s72.74-109.03 72.74-174.93v-483.76c0-65.9-25.83-128.02-72.74-174.93-46.92-46.91-109.04-72.75-174.94-72.75zm242.05 731.78c0 58.57-29.46 128.86-71.18 170.58s-112.67 70.59-171.23 70.59l-495.581.52c-58.57 0-129.946-30.52-171.666-72.24s-70.679-110.77-70.679-169.33l-.37-484.285c0-58.57 30.163-128.357 71.883-170.077s112.319-71.947 170.879-71.947l495.934-.123c58.57 0 129.25 30.641 170.97 72.361s70.77 111.463 70.77 170.023z" fill="none"/></svg>